<?xml version="1.0"?>
<svg xmlns="http://www.w3.org/2000/svg" xmlns:xlink="http://www.w3.org/1999/xlink" xmlns:svgjs="http://svgjs.com/svgjs" version="1.1" width="512" height="512" x="0" y="0" viewBox="0 0 24 24" style="enable-background:new 0 0 512 512" xml:space="preserve" class=""><g><path xmlns="http://www.w3.org/2000/svg" d="m13.25 5.5h-.5c-.138 0-.25.112-.25.25v2.5c0 .138.112.25.25.25h.5c.138 0 .25-.112.25-.25v-2.5c0-.138-.112-.25-.25-.25z" fill="#29d472" data-original="#000000" style="" class=""/><path xmlns="http://www.w3.org/2000/svg" d="m18.716 7 4.026-4.962c.307-.378.368-.886.159-1.325-.21-.44-.641-.713-1.129-.713h-20.022c-.414 0-.75.336-.75.75v12.5c0 .414.336.75.75.75h20.022c.487 0 .919-.273 1.129-.713.209-.439.147-.947-.159-1.325zm-11.966 1.5h.75v-.5c-.414 0-.75-.336-.75-.75s.336-.75.75-.75h.75c.414 0 .75.336.75.75v2c0 .414-.336.75-.75.75h-1.5c-.965 0-1.75-.785-1.75-1.75v-2.5c0-.965.785-1.75 1.75-1.75h1.5c.414 0 .75.336.75.75s-.336.75-.75.75h-1.5c-.138 0-.25.112-.25.25v2.5c0 .138.112.25.25.25zm8.25-.25c0 .965-.785 1.75-1.75 1.75h-.5c-.965 0-1.75-.785-1.75-1.75v-2.5c0-.965.785-1.75 1.75-1.75h.5c.965 0 1.75.785 1.75 1.75z" fill="#29d472" data-original="#000000" style="" class=""/><path xmlns="http://www.w3.org/2000/svg" d="m2 24c-.553 0-1-.448-1-1v-22c0-.552.447-1 1-1s1 .448 1 1v22c0 .552-.447 1-1 1z" fill="#29d472" data-original="#000000" style="" class=""/></g></svg>
