<svg width="166" height="83" viewBox="0 0 166 83" fill="none" xmlns="http://www.w3.org/2000/svg">
<rect x="28" y="26" width="10" height="57" fill="white"/>
<path d="M58 15C60.9431 16.2136 62.5713 18.0195 63.3655 19.9778C64.6889 23.2405 63.6973 26.9262 62.6157 29" stroke="white" stroke-width="2"/>
<path d="M15.3282 40.1759C12.4036 40.1673 11.2186 36.4062 13.6101 34.7227L48.4124 10.2252C50.0728 9.05638 52.3904 9.84019 53.0005 11.7769L60.7578 36.399C61.368 38.3357 59.9182 40.3064 57.8877 40.3005L15.3282 40.1759Z" fill="#D6D6D6"/>
<path d="M63 9C67.9052 10.9071 70.6188 13.7449 71.9426 16.8222C74.1481 21.9494 72.4956 27.7411 70.6928 31" stroke="white" stroke-width="2"/>
<path fill-rule="evenodd" clip-rule="evenodd" d="M13.6101 34.7227C11.2186 36.4061 12.4036 40.1673 15.3282 40.1759L57.8877 40.3005C59.9182 40.3064 61.368 38.3357 60.7578 36.399L53.0006 11.7769C52.3904 9.84019 50.0728 9.05638 48.4124 10.2251L13.6101 34.7227ZM57.629 37.7059C58.9921 37.2769 58.2703 31.1247 56.0167 23.9646C53.7632 16.8044 50.8313 11.3478 49.4682 11.7768C48.105 12.2058 48.8269 18.358 51.0804 25.5182C53.3339 32.6783 56.2658 38.135 57.629 37.7059Z" fill="white"/>
<path d="M52.492 74C52.252 74 52.048 73.928 51.88 73.784C51.736 73.616 51.664 73.412 51.664 73.172V56.144C51.664 55.904 51.736 55.7 51.88 55.532C52.048 55.364 52.252 55.28 52.492 55.28H54.148C54.388 55.28 54.592 55.364 54.76 55.532C54.928 55.7 55.012 55.904 55.012 56.144V57.728C55.996 56.096 57.676 55.28 60.052 55.28H61.456C61.696 55.28 61.888 55.364 62.032 55.532C62.2 55.676 62.284 55.868 62.284 56.108V57.584C62.284 57.824 62.2 58.016 62.032 58.16C61.888 58.304 61.696 58.376 61.456 58.376H59.296C58 58.376 56.98 58.76 56.236 59.528C55.492 60.272 55.12 61.292 55.12 62.588V73.172C55.12 73.412 55.036 73.616 54.868 73.784C54.7 73.928 54.496 74 54.256 74H52.492ZM72.6562 74.36C70.0162 74.36 67.9642 73.616 66.5002 72.128C65.0602 70.64 64.2922 68.66 64.1962 66.188L64.1602 64.64L64.1962 63.092C64.2922 60.644 65.0722 58.676 66.5362 57.188C68.0002 55.676 70.0402 54.92 72.6562 54.92C75.2722 54.92 77.3122 55.676 78.7762 57.188C80.2402 58.676 81.0202 60.644 81.1162 63.092C81.1402 63.356 81.1522 63.872 81.1522 64.64C81.1522 65.408 81.1402 65.924 81.1162 66.188C81.0202 68.66 80.2402 70.64 78.7762 72.128C77.3362 73.616 75.2962 74.36 72.6562 74.36ZM72.6562 71.588C74.1682 71.588 75.3562 71.108 76.2202 70.148C77.1082 69.188 77.5882 67.808 77.6602 66.008C77.6842 65.768 77.6962 65.312 77.6962 64.64C77.6962 63.968 77.6842 63.512 77.6602 63.272C77.5882 61.472 77.1082 60.092 76.2202 59.132C75.3562 58.172 74.1682 57.692 72.6562 57.692C71.1442 57.692 69.9442 58.172 69.0562 59.132C68.1682 60.092 67.7002 61.472 67.6522 63.272L67.6162 64.64L67.6522 66.008C67.7002 67.808 68.1682 69.188 69.0562 70.148C69.9442 71.108 71.1442 71.588 72.6562 71.588ZM86.5601 51.788C86.3201 51.788 86.1161 51.716 85.9481 51.572C85.8041 51.404 85.7321 51.2 85.7321 50.96V49.016C85.7321 48.776 85.8041 48.572 85.9481 48.404C86.1161 48.236 86.3201 48.152 86.5601 48.152H88.8641C89.1041 48.152 89.3081 48.236 89.4761 48.404C89.6441 48.572 89.7281 48.776 89.7281 49.016V50.96C89.7281 51.2 89.6441 51.404 89.4761 51.572C89.3081 51.716 89.1041 51.788 88.8641 51.788H86.5601ZM82.6001 80.84C82.3601 80.84 82.1681 80.756 82.0241 80.588C81.8561 80.444 81.7721 80.252 81.7721 80.012V78.788C81.7721 78.548 81.8561 78.344 82.0241 78.176C82.1681 78.032 82.3601 77.96 82.6001 77.96H83.1041C84.2801 77.96 85.0601 77.66 85.4441 77.06C85.8281 76.46 86.0201 75.572 86.0201 74.396V56.108C86.0201 55.868 86.0921 55.676 86.2361 55.532C86.4041 55.364 86.6081 55.28 86.8481 55.28H88.6121C88.8521 55.28 89.0441 55.364 89.1881 55.532C89.3561 55.676 89.4401 55.868 89.4401 56.108V74.432C89.4401 78.704 87.3881 80.84 83.2841 80.84H82.6001ZM102.289 74.36C99.8167 74.36 97.8367 73.604 96.3487 72.092C94.8847 70.556 94.0807 68.468 93.9367 65.828L93.9007 64.604L93.9367 63.416C94.1047 60.824 94.9207 58.76 96.3847 57.224C97.8727 55.688 99.8287 54.92 102.253 54.92C104.917 54.92 106.981 55.772 108.445 57.476C109.909 59.156 110.641 61.436 110.641 64.316V64.928C110.641 65.168 110.557 65.372 110.389 65.54C110.245 65.684 110.053 65.756 109.813 65.756H97.3567V66.08C97.4287 67.64 97.8967 68.972 98.7607 70.076C99.6487 71.156 100.813 71.696 102.253 71.696C103.357 71.696 104.257 71.48 104.953 71.048C105.673 70.592 106.201 70.124 106.537 69.644C106.753 69.356 106.909 69.188 107.005 69.14C107.125 69.068 107.329 69.032 107.617 69.032H109.381C109.597 69.032 109.777 69.092 109.921 69.212C110.065 69.332 110.137 69.5 110.137 69.716C110.137 70.244 109.801 70.88 109.129 71.624C108.481 72.368 107.557 73.016 106.357 73.568C105.181 74.096 103.825 74.36 102.289 74.36ZM107.221 63.272V63.164C107.221 61.508 106.765 60.164 105.853 59.132C104.965 58.076 103.765 57.548 102.253 57.548C100.741 57.548 99.5407 58.076 98.6527 59.132C97.7887 60.164 97.3567 61.508 97.3567 63.164V63.272H107.221ZM122.505 74.36C119.937 74.36 117.921 73.64 116.457 72.2C115.017 70.736 114.249 68.696 114.153 66.08L114.117 64.64L114.153 63.2C114.249 60.584 115.017 58.556 116.457 57.116C117.921 55.652 119.937 54.92 122.505 54.92C124.233 54.92 125.697 55.232 126.897 55.856C128.097 56.48 128.985 57.248 129.561 58.16C130.161 59.072 130.485 59.984 130.533 60.896C130.557 61.136 130.485 61.328 130.317 61.472C130.149 61.616 129.945 61.688 129.705 61.688H127.977C127.737 61.688 127.557 61.64 127.437 61.544C127.317 61.448 127.197 61.256 127.077 60.968C126.669 59.816 126.093 59 125.349 58.52C124.605 58.016 123.669 57.764 122.541 57.764C121.053 57.764 119.865 58.232 118.977 59.168C118.113 60.08 117.645 61.484 117.573 63.38L117.537 64.676L117.573 65.9C117.645 67.82 118.113 69.236 118.977 70.148C119.841 71.06 121.029 71.516 122.541 71.516C123.669 71.516 124.605 71.276 125.349 70.796C126.093 70.292 126.669 69.464 127.077 68.312C127.197 68.024 127.317 67.832 127.437 67.736C127.557 67.616 127.737 67.556 127.977 67.556H129.705C129.945 67.556 130.149 67.64 130.317 67.808C130.485 67.952 130.557 68.144 130.533 68.384C130.485 69.272 130.161 70.184 129.561 71.12C128.985 72.032 128.097 72.8 126.897 73.424C125.721 74.048 124.257 74.36 122.505 74.36ZM142.117 74C138.325 74 136.429 71.888 136.429 67.664V58.16H133.621C133.381 58.16 133.177 58.088 133.009 57.944C132.865 57.776 132.793 57.572 132.793 57.332V56.108C132.793 55.868 132.865 55.676 133.009 55.532C133.177 55.364 133.381 55.28 133.621 55.28H136.429V49.268C136.429 49.028 136.501 48.836 136.645 48.692C136.813 48.524 137.017 48.44 137.257 48.44H138.949C139.189 48.44 139.381 48.524 139.525 48.692C139.693 48.836 139.777 49.028 139.777 49.268V55.28H144.241C144.481 55.28 144.673 55.364 144.817 55.532C144.985 55.676 145.069 55.868 145.069 56.108V57.332C145.069 57.572 144.985 57.776 144.817 57.944C144.673 58.088 144.481 58.16 144.241 58.16H139.777V67.412C139.777 68.612 139.981 69.524 140.389 70.148C140.797 70.748 141.469 71.048 142.405 71.048H144.601C144.841 71.048 145.033 71.132 145.177 71.3C145.345 71.444 145.429 71.636 145.429 71.876V73.172C145.429 73.412 145.345 73.616 145.177 73.784C145.033 73.928 144.841 74 144.601 74H142.117Z" fill="white"/>
</svg>
